<svg width="3908" height="3123" viewBox="0 0 3908 3123" fill="none" xmlns="http://www.w3.org/2000/svg">
<g clip-path="url(#clip0_1_2)">
<path d="M3372.55 2416.09C3012.14 3111.9 1326.58 3079.31 929.272 2671.99C770.703 2509.45 728.836 2230.28 667.293 1820.21C637.666 1622.81 633.424 1463.7 630.909 1354.53C622.235 983.17 617.917 797.473 681.824 671.142C864.875 309.524 1500.77 168.78 1911.78 162.251C1940.47 161.787 1969.42 161.966 1998.59 162.786C2479.86 176.2 3022.93 363.609 3357.86 764.079C3392.48 805.393 3424.81 848.989 3454.66 894.905C3760.39 1365.19 3609.24 1959.15 3372.55 2416.09Z" fill="#F4F7FA"/>
<path d="M1853.04 2241.32C1871.75 2233.05 1904.65 2199.63 1909.39 2187.61C1940.92 2107.62 2010.36 1961.44 1975.36 1877.47C1969.38 1863.13 1894.84 1870.7 1880.41 1860.24C1831.64 1854.27 1814.32 1855.03 1770.93 1828.05C1642.82 1748.4 1780.79 1484.27 1514.79 1486.62C1319.94 1488.34 1190.23 1590.58 1120.4 1327.89C1050.56 1065.2 670.838 662.938 442.81 929.939C311.943 1083.17 556.475 1250.52 526.573 1437.6C498.159 1615.37 611.163 1720.44 816.861 1759.71C1022.56 1798.97 954.094 1897.75 953.886 2058.57C953.637 2251.77 1251.82 2195.73 1387.12 2158.88C1496.08 2129.2 1794.93 2122.39 1853.04 2241.32Z" fill="url(#paint0_linear_1_2)"/>
<mask id="mask0_1_2" style="mask-type:luminance" maskUnits="userSpaceOnUse" x="404" y="842" width="1615" height="1434">
<path d="M2011.93 1841.96C2011.77 1975.02 2017.47 2110.42 2018.09 2244.41C1943.14 2273.54 1854.22 2306.1 1806.57 2222.73C1740.33 2106.83 1495.52 2128.52 1386.82 2158.72C1252.28 2196.09 953.46 2251.59 953.862 2058.54C954.197 1897.83 1022.52 1798.93 816.846 1759.7C611.168 1720.46 498.194 1615.36 526.57 1437.58C556.431 1250.5 311.984 1083.25 442.809 929.933C670.766 662.793 1050.73 1065.45 1120.32 1327.8C1189.91 1590.16 1320.69 1489.28 1514.58 1486.37C1779.28 1482.39 1646.14 1752.47 1769.42 1825.93C1866.07 1883.52 1915.85 1852.59 2011.93 1841.96Z" fill="white"/>
</mask>
<g mask="url(#mask0_1_2)">
<g opacity="0.8">
<path d="M1942.52 2040.4C1769.88 2017.55 1603.56 1970.2 1448.19 1899.67C1298.89 1831.89 1159.47 1742.65 1033.79 1634.43C789.813 1424.35 601.538 1146.08 489.32 829.699L492.97 828.565C729.819 1496.33 1271.91 1948.02 1943.06 2036.84L1942.52 2040.4Z" fill="#FCFDFE"/>
<path d="M943.774 2138.65L941.506 2135.74C1091.87 2033.2 1372.72 1946.63 1567.59 1942.77L1567.67 1946.36C1373.48 1950.21 1093.6 2036.47 943.774 2138.65Z" fill="#FCFDFE"/>
<path d="M1811.08 2021.57C1717.86 1982.49 1649.41 1901.01 1607.62 1779.39C1577.14 1690.64 1561.28 1582.91 1560.51 1459.19L1564.36 1459.17C1565.13 1582.52 1580.91 1689.89 1611.29 1778.29C1652.72 1898.89 1720.47 1979.64 1812.65 2018.29L1811.08 2021.57Z" fill="#FCFDFE"/>
<path d="M1000.33 1603.31C831.89 1522.72 634.379 1547.3 498.35 1582.1L497.336 1578.63C634.019 1543.66 832.547 1518.99 1002.08 1600.11L1000.33 1603.31Z" fill="#FCFDFE"/>
<path d="M722.826 1288.83C641.633 1101.56 701.032 897.132 743.665 791.944L747.263 793.22C704.829 897.915 645.688 1101.35 726.386 1287.48L722.826 1288.83Z" fill="#FCFDFE"/>
</g>
</g>
<mask id="mask1_1_2" style="mask-type:luminance" maskUnits="userSpaceOnUse" x="1020" y="692" width="1057" height="1857">
<path d="M1745.26 2548.7C1853.6 2536.36 1961.83 2522.1 2069.86 2505.91C2071.62 2507.14 2107.13 2324.82 1995.27 2229.2C1774.08 2043.96 1923.07 1877.71 1965.56 1779.21C2033.58 1640.3 1998.72 1471.46 1801.11 1503.09C1608.6 1530.32 1579.4 1223.46 1612.63 987.059C1640.98 872.001 1500.77 732.398 1360.85 700.494C1218.01 665.147 1075.47 737.498 1031.78 966.84C965.649 1232.38 1215.94 1392.52 1308.63 1525.65C1399.82 1656.34 1187.68 1762.08 1358.43 1877.88C1502.06 1980.78 1683.07 2054.74 1616.86 2183.99C1548.82 2311.77 1565.11 2416.24 1745.26 2548.7Z" fill="white"/>
</mask>
<g mask="url(#mask1_1_2)">
<path d="M1745.26 2548.7C1853.6 2536.36 1961.83 2522.1 2069.86 2505.91C2071.62 2507.14 2107.13 2324.82 1995.27 2229.2C1774.08 2043.96 1923.07 1877.71 1965.56 1779.21C2032.9 1640.4 1997.48 1490.09 1815.02 1487.87C1612.64 1482.34 1575.94 1222.98 1612.63 987.059C1640.98 872.001 1500.77 732.398 1360.85 700.494C1218.01 665.147 1075.47 737.498 1031.78 966.84C965.649 1232.38 1215.94 1392.52 1308.63 1525.65C1399.82 1656.34 1187.68 1762.08 1358.43 1877.88C1502.06 1980.78 1683.07 2054.74 1616.86 2183.99C1548.82 2311.77 1565.11 2416.24 1745.26 2548.7Z" fill="url(#paint1_linear_1_2)"/>
</g>
<mask id="mask2_1_2" style="mask-type:luminance" maskUnits="userSpaceOnUse" x="1020" y="692" width="1057" height="1857">
<path d="M1745.26 2548.7C1853.6 2536.36 1961.83 2522.1 2069.86 2505.91C2071.62 2507.14 2107.13 2324.82 1995.27 2229.2C1774.08 2043.96 1923.07 1877.71 1965.56 1779.21C2033.58 1640.3 1998.72 1471.46 1801.11 1503.09C1608.6 1530.32 1579.4 1223.46 1612.63 987.059C1640.98 872.001 1500.77 732.398 1360.85 700.494C1218.01 665.147 1075.47 737.498 1031.78 966.84C965.649 1232.38 1215.94 1392.52 1308.63 1525.65C1399.82 1656.34 1187.68 1762.08 1358.43 1877.88C1502.06 1980.78 1683.07 2054.74 1616.86 2183.99C1548.82 2311.77 1565.11 2416.24 1745.26 2548.7Z" fill="white"/>
</mask>
<g mask="url(#mask2_1_2)">
<g opacity="0.8">
<path d="M1890.34 2559.51C1889.01 2547.7 1779.77 2160.07 1608.59 1802.09C1583.89 1741.52 1557.11 1680.57 1531.21 1621.63C1461.8 1463.63 1390.02 1300.25 1355.91 1137.44C1317.73 955.224 1331.35 791.083 1397.55 635.633L1401.35 636.605C1254.36 981.804 1390.68 1292.11 1535.01 1620.63C1560.91 1679.59 1587.69 1740.56 1612.38 1801.08C1790.95 2174.51 1894.38 2557.85 1894.34 2559.47L1890.34 2559.42L1892.34 2559.44L1890.34 2559.51Z" fill="#FCFDFE"/>
<path d="M1405.81 1315.37C1284.92 1211.38 1139.13 1063.66 1060.81 984.299C1027.33 950.377 1000.89 923.584 997.753 921.96L998.617 920.961L998.23 919.037C1000.91 918.742 1003.46 921.091 1063.99 982.416C1142.28 1061.74 1288 1209.4 1408.79 1313.3L1405.81 1315.37Z" fill="#FCFDFE"/>
<path d="M1368.96 1172.95L1365.01 1172.45C1384.12 1081.37 1429.12 999.649 1495.13 936.128C1547.53 885.702 1597.46 861.528 1610.82 857.034C1613.67 856.076 1614.91 855.937 1615.95 856.47L1613.72 859.046C1614.22 859.299 1614.62 859.264 1614.64 859.264C1609.64 859.676 1560.34 880.938 1506.2 930.601C1457.4 975.367 1393.97 1053.75 1368.96 1172.95Z" fill="#FCFDFE"/>
<path d="M1714.57 2045.14C1697.43 1933.7 1730.93 1813.91 1814.11 1689.08C1857.43 1624.08 1912.68 1560.4 1978.3 1499.82C1981.74 1496.65 1984.45 1494.15 1984.82 1493.65L1988.29 1495.2C1987.76 1495.9 1985.9 1497.63 1981.37 1501.81C1890.19 1585.99 1682.04 1807.39 1718.54 2044.78L1714.57 2045.14Z" fill="#FCFDFE"/>
<path d="M1665.72 1928.45C1537.47 1768.01 1268.56 1756.71 1263.98 1756.71H1263.94L1263.76 1755.17L1263.13 1756.64L1261.75 1755.12L1263.24 1753.67C1265.56 1753.17 1539.26 1764.36 1669.13 1926.81L1665.72 1928.45Z" fill="#FCFDFE"/>
<path d="M1872.26 2496.95C1869.94 2448.17 1892.35 2365.15 2012.22 2246.59C2015.04 2243.81 2017.47 2241.4 2017.8 2240.93L2019.27 2241.53L2021.62 2241.27C2021.79 2242.16 2021.79 2242.16 2015.37 2248.5C1896.25 2366.32 1873.97 2448.58 1876.26 2496.83L1872.26 2496.95Z" fill="#FCFDFE"/>
<path d="M1844.74 2406.05C1813.23 2321.88 1660.14 2259.84 1571.68 2230.35C1568.66 2229.34 1566.72 2228.69 1566.03 2228.42L1567.86 2225.66C1568.52 2225.92 1570.38 2226.54 1573.26 2227.5C1662.36 2257.2 1816.62 2319.79 1848.59 2405.19L1844.74 2406.05Z" fill="#FCFDFE"/>
</g>
</g>
<path d="M3619.19 2550.68L946.027 2528.7V2593.74C946.027 2611.39 957.687 2626.4 973.477 2629.07L1729.37 2757.13C1738.34 2758.65 1747.44 2759.05 1756.49 2758.33L3590.14 2612.32C3606.51 2611.02 3619.19 2595.96 3619.19 2577.83L3619.19 2550.68Z" fill="#BFC8D6"/>
<path d="M2649.11 2445.26L973.669 2564.23C943.688 2566.36 919.311 2543.74 919.311 2513.7V1310.21C919.311 1280.18 943.687 1255.82 973.669 1255.82H2649.11C2673.81 1255.82 2693.78 1277.84 2693.78 1304.99V2392.92C2693.78 2420.07 2673.81 2443.51 2649.11 2445.26Z" fill="#BFC8D6"/>
<path d="M2675.82 2445.26L1000.38 2564.23C970.402 2566.36 946.026 2543.74 946.026 2513.7V1310.21C946.026 1280.18 970.402 1255.82 1000.38 1255.82H2675.82C2700.52 1255.82 2720.49 1277.84 2720.49 1304.99V2392.92C2720.49 2420.07 2700.52 2443.51 2675.82 2445.26Z" fill="white"/>
<path d="M2623.63 2368.56L1063.13 2471.9C1038.73 2473.52 1018.91 2454.95 1018.91 2430.43V1376.78C1018.91 1352.25 1038.73 1332.29 1063.13 1332.19L2623.63 1325.7C2644.01 1325.61 2660.49 1343.65 2660.49 1365.99V2325.68C2660.49 2348.01 2644.01 2367.21 2623.63 2368.56Z" fill="#D8DEE8"/>
<path d="M1897.28 1288.74C1897.28 1299.93 1888.65 1309.02 1878 1309.05C1867.34 1309.08 1858.69 1300.02 1858.69 1288.81C1858.69 1277.61 1867.34 1268.52 1878 1268.51C1888.65 1268.5 1897.28 1277.56 1897.28 1288.74Z" fill="white"/>
<path opacity="0.48" d="M2272.15 2115.19C2142.99 2045.36 2041.43 2133.84 1943.42 2046.54C1884 1993.61 1913.17 1954.14 1840.05 1875.05C1759.07 1787.45 1706.35 1816.9 1624.96 1738.05C1522.06 1638.36 1573.53 1560.8 1484.88 1489.23C1377.35 1402.4 1261.38 1482.76 1159.01 1399.49C1114.86 1363.57 1090.64 1311.36 1077.99 1255.83H977.831C960.279 1255.83 946.026 1270.12 946.026 1287.75V2535.27C946.026 2552.9 960.279 2566.18 977.831 2564.92L2685.38 2443.14C2693.76 2442.54 2701.19 2437.62 2705.96 2430.5C2580.96 2425.92 2504.17 2383.82 2455.08 2340.29C2359.05 2255.14 2375.71 2171.17 2272.15 2115.19Z" fill="white"/>
<path d="M2742.6 2439.87L946.026 2565.09L1729.37 2697.8C1738.34 2699.32 1747.43 2699.73 1756.49 2699.01L3619.19 2550.68L2771.18 2440.72C2761.7 2439.49 2752.13 2439.2 2742.6 2439.87Z" fill="url(#paint2_linear_1_2)"/>
<path d="M1208.17 2568.24L2703.88 2462.43L3166.78 2521.98L1683.97 2635.08L1208.17 2568.24Z" fill="#D8DEE8"/>
<mask id="mask3_1_2" style="mask-type:luminance" maskUnits="userSpaceOnUse" x="880" y="704" width="2172" height="1763">
<path d="M2590.6 2370.75L1131.7 2466.05L880.206 1550.07L1464.06 704.566L3051.69 1026.77L2590.6 2370.75Z" fill="white"/>
</mask>
<g mask="url(#mask3_1_2)">
<path d="M2206.92 1321.56C2206.92 1321.56 2489.52 1556.89 2655.37 1470.7C2821.22 1384.51 2698.37 1192.55 2698.37 1192.55C2698.37 1192.55 2645.6 1130.37 2742.15 1145.21C2847.83 1161.46 2950.21 1113.37 2950.21 1113.37L2894.97 1167.83C2876.49 1186.05 2851.44 1197.19 2824.67 1199.09L2782.31 1202.09C2782.31 1202.09 2999.35 1614.35 2686.08 1700.54C2372.82 1786.74 2108.35 1585.62 2108.35 1585.62L2206.92 1321.56Z" fill="url(#paint3_linear_1_2)"/>
<path d="M1835.85 904.748C1814.22 892.214 1814.92 865.23 1815.19 854.565C1815.84 829.35 1829.43 788.82 1859.21 783.842C1883.13 779.843 1902.73 801.26 1905.15 803.975C1929.7 831.587 1913.31 869.214 1911.53 873.133C1907.53 881.915 1899.27 900.034 1878.32 907.489C1876.84 908.015 1854.56 915.588 1835.85 904.748Z" fill="url(#paint4_linear_1_2)"/>
<g opacity="0.3">
<path d="M1883.12 853.684C1871.51 835.479 1847.73 836.5 1842.06 821.109C1839.22 813.423 1841.08 802.055 1855.87 784.583C1828.42 791.914 1815.82 830.314 1815.19 854.565C1814.92 865.23 1814.22 892.214 1835.85 904.748C1854.56 915.588 1876.84 908.015 1878.32 907.489C1879.24 907.161 1880.13 906.807 1881 906.44C1888.8 888.148 1892.61 868.554 1883.12 853.684Z" fill="url(#paint5_linear_1_2)"/>
</g>
<path d="M1677.97 1406.66C1677.97 1406.66 1659.06 1108.49 1687.88 1004.96C1716.7 901.429 1824.38 884.416 1869.91 885.164C1915.41 885.911 2003.46 918.332 1999.37 1041.7C1995.28 1165.04 1903.17 1421.6 1903.17 1421.6L1677.97 1406.66Z" fill="url(#paint6_linear_1_2)"/>
<path opacity="0.3" d="M1823.45 1151.45C1893.86 1143.4 1909.47 1081.21 1974.2 1074.02C1980.47 1073.32 1987.52 1073.11 1995.31 1073.82C1994.34 1062.03 1993.13 1050.68 1991.65 1039.96C1982.84 1038.94 1974.94 1039.11 1967.99 1039.88C1903.26 1047.06 1887.65 1109.25 1817.23 1117.29C1759.8 1123.85 1734.17 1086.61 1685.57 1102.81C1673.05 1106.99 1662.47 1113.56 1653.56 1121.17C1655.58 1131.98 1657.92 1143.22 1660.5 1154.75C1669.26 1147.4 1679.61 1141.07 1691.8 1137C1740.39 1120.79 1766.01 1158.02 1823.45 1151.45Z" fill="white"/>
<path opacity="0.3" d="M1972.17 1107.46C1913.03 1099.53 1883.57 1156.21 1819.19 1147.81C1766.68 1140.96 1753.35 1098.98 1706.24 1103.51C1694.43 1104.65 1683.67 1108.4 1674.06 1113.51C1672.34 1146.76 1671.78 1182.65 1671.9 1217.52C1679.53 1214.25 1687.79 1211.92 1696.65 1211.06C1743.76 1206.51 1757.09 1248.47 1809.6 1255.29C1873.98 1263.65 1903.43 1206.97 1962.57 1214.86C1964.09 1215.06 1977.89 1108.23 1972.17 1107.46Z" fill="url(#paint7_linear_1_2)"/>
<path d="M1452.77 1388.49C1106.01 1472.9 944.738 1776.99 1026.95 1978.14C1083.16 2115.7 1255.42 2210.47 1451.71 2223.17C1457.91 2207.52 1464.12 2191.86 1470.33 2176.2C1437.87 2169.73 1376.81 2153.14 1319.38 2106.56C1254.44 2053.88 1204.53 1971.25 1206.04 1894.27C1208.61 1763.81 1359.34 1627.62 1577.37 1609.52C1535.83 1535.85 1494.3 1462.17 1452.77 1388.49Z" fill="url(#paint8_linear_1_2)"/>
<path d="M1383.21 1388.21C1410.55 1461.21 1443.62 1513.71 1468.18 1547.62C1551.96 1663.28 1665.76 1759.79 1665.76 1759.79C1709.66 1797.01 1725.2 1805.03 1731.28 1828.74C1748.42 1895.52 1658.22 1960.64 1592.05 2024.11C1592.05 2024.11 1390.56 2217.38 1340.21 2489.54C1326.12 2565.7 1316.99 2705.85 1405.73 2891.77C1445.85 2857.04 1512.11 2809.3 1603.73 2786.62C1874.27 2719.65 2056.69 2947.67 2392.62 2962.63C2495.42 2967.21 2644.99 2953.29 2830.78 2861.12C2812 2802.23 2774.39 2712.4 2693.6 2631.28C2507.71 2444.62 2293.85 2505.52 2170.11 2332.29C2091.39 2222.09 2099.83 2088.11 2105.62 1996.16C2114.45 1855.86 2162.85 1802.81 2196.06 1627.63C2220.24 1500.13 2220.22 1393.06 2216.53 1323.09C2123.3 1307.83 2009.32 1296.87 1879.66 1300.77C1673.51 1306.99 1503.68 1348.53 1383.21 1388.21Z" fill="url(#paint9_linear_1_2)"/>
<path d="M1793.71 1164.85C1793.71 1164.85 1801.23 1268.12 1732.45 1295.83C1663.68 1323.55 1522.42 1348.62 1522.42 1348.62L1800.25 1399.69C1866.78 1411.92 1935.79 1401.75 1995.08 1370.99L2108.35 1312.21L1943.27 1283.04C1903.11 1275.95 1871.72 1246.52 1864.22 1208.94L1853.85 1157L1793.71 1164.85Z" fill="url(#paint10_linear_1_2)"/>
<path opacity="0.3" d="M2215.52 2836.22C1986.95 2815.51 1701.69 2680.34 1647.34 2462.73C1602.73 2284.11 1734.49 2086.53 1797.83 1991.55C1930.05 1793.28 2066.14 1735.75 2040.46 1669.77C2002.93 1573.35 1702.46 1670.97 1499.92 1506.01C1455.09 1469.5 1422.93 1426.53 1399.62 1382.93C1394.1 1384.69 1388.55 1386.45 1383.21 1388.21C1410.55 1461.21 1443.62 1513.71 1468.18 1547.62C1551.96 1663.28 1665.76 1759.79 1665.76 1759.79C1709.66 1797.01 1725.2 1805.03 1731.28 1828.74C1748.42 1895.52 1658.23 1960.64 1592.06 2024.11C1592.06 2024.11 1390.56 2217.38 1340.21 2489.54C1326.13 2565.69 1316.99 2705.85 1405.73 2891.76C1445.86 2857.04 1512.11 2809.3 1603.74 2786.62C1874.27 2719.65 2056.7 2947.67 2392.63 2962.63C2495.42 2967.21 2644.99 2953.28 2830.79 2861.12C2802.37 2823.13 2763.19 2766.45 2724.43 2693.37C2602.07 2777.25 2427.44 2855.42 2215.52 2836.22Z" fill="url(#paint11_linear_1_2)"/>
<path d="M1444.96 2217.65C1444.96 2217.65 1474.29 2109.41 1522.42 2119.43C1570.55 2129.46 1619.7 2159.88 1619.7 2159.88C1619.7 2159.88 1498.38 2179.01 1444.96 2217.65Z" fill="url(#paint12_linear_1_2)"/>
<path d="M1874.97 1590.31C1851.31 1584.92 1910.77 1400.45 1915.5 1109.78C1916.48 1049.49 1914.86 999.747 1913.26 966.211C1939.16 969.244 1965.06 972.277 1990.95 975.308C2012.97 1064.12 2037.77 1225.48 1973.47 1411.35C1943.23 1498.74 1892.37 1594.29 1874.97 1590.31Z" fill="url(#paint13_linear_1_2)"/>
<path d="M1746.34 1042.78C1744.71 1061.08 1723.68 1194.69 1835.6 1198.71C1937.82 1202.38 1937.62 1104.3 1939.03 1055.11C1939.03 1055.11 1938.3 1010.84 1904.99 997.042C1904.99 997.042 1934.6 1023.42 1929.24 1077.88C1929.24 1077.88 1923.9 1048.53 1849.02 1044.8C1774.07 1041.06 1755.62 1071.52 1755.62 1071.52C1755.62 1071.52 1747.05 1018.55 1787.66 992.699C1787.66 992.699 1759.9 999.398 1746.34 1042.78Z" fill="url(#paint14_linear_1_2)"/>
</g>
<path d="M3066.58 1117.06H3068.04C3068.09 1117.06 3068.18 1117 3068.18 1117.33C3068.18 1141.93 2959.25 1161.51 2824.91 1161.51C2810.83 1161.51 2797.03 1161.12 2783.61 1160.69C2668.93 1157.11 2581.64 1139.44 2581.64 1117.42C2581.64 1117.09 2581.72 1117.06 2581.78 1117.06H2580.7V752.743C2580.7 644.524 2648.28 552.757 2740.78 522.119C2762.22 515.014 2785.5 511.03 2809.17 511.03H2840.65C2966.32 511.03 3066.58 619.412 3066.58 752.743V1117.06H3066.58Z" fill="url(#paint15_linear_1_2)"/>
<path d="M2716.89 352.635V535.133H2717.64C2725.06 542.02 2769.69 544.242 2823.65 544.242C2877.61 544.242 2922.23 542.019 2929.66 535.133H2930.39V352.635H2716.89Z" fill="url(#paint16_linear_1_2)"/>
<path d="M2823.65 362.558C2882.81 362.558 2930.76 357.8 2930.76 351.93C2930.76 346.06 2882.81 341.302 2823.65 341.302C2764.49 341.302 2716.53 346.06 2716.53 351.93C2716.53 357.8 2764.49 362.558 2823.65 362.558Z" fill="url(#paint17_linear_1_2)"/>
<path d="M3003.88 899.952C3003.51 920.064 2987.78 936.9 2968.74 937.412C2870.96 940.051 2773.13 940.051 2675.36 937.412C2656.32 936.9 2640.59 920.064 2640.21 899.952C2639.73 872.637 2639.25 845.322 2638.77 818.008C2638.41 797.892 2653.79 782.124 2673.16 782.645C2772.4 785.323 2871.69 785.323 2970.94 782.645C2990.3 782.124 3005.68 797.891 3005.32 818.008C3004.84 845.322 3004.36 872.637 3003.88 899.952Z" fill="url(#paint18_linear_1_2)"/>
<path opacity="0.3" d="M2783.61 1160.51C2668.93 1156.92 2581.64 1139.35 2581.64 1117.33C2581.64 1117 2581.72 1117.06 2581.78 1117.06H2580.7V752.742C2580.7 644.523 2648.28 552.913 2740.78 522.275C2721.23 544.35 2628.77 658.095 2675.85 781.588C2694.22 829.807 2689.65 883.977 2684.09 936.447C2673.85 1033.13 2660.74 1123.92 2783.61 1160.51Z" fill="url(#paint19_linear_1_2)"/>
<path d="M2897.12 2165.86C2897.12 2165.86 2897.12 2151.51 2888.41 2143C2879.7 2134.5 2872.88 2118.55 2873.07 2127.24C2873.26 2135.92 2875.91 2146.9 2875.91 2146.9C2875.91 2146.9 2865.3 2149.91 2873.07 2160.55C2880.84 2171.18 2900.4 2180.68 2897.12 2165.86Z" fill="url(#paint20_linear_1_2)"/>
<path d="M3234.35 2850.76C3240.27 2859.6 3239.35 2863.73 3238.33 2865.61C3235.34 2871.13 3226.22 2867.09 3204.11 2871.76C3201.51 2872.31 3196.57 2873.43 3190.16 2872.66C3184.67 2872 3178.06 2869.95 3178.18 2868.59C3178.22 2868.09 3179.15 2867.8 3179.5 2867.69C3185.58 2865.84 3223.23 2850.87 3223.23 2850.87L3234.35 2850.76Z" fill="url(#paint21_linear_1_2)"/>
<path d="M3235.04 2829.99L3233.9 2851.15C3233.9 2851.15 3225.04 2858.41 3221.67 2850.98C3219.25 2845.64 3217.64 2830.75 3217.64 2830.75L3235.04 2829.99Z" fill="url(#paint22_linear_1_2)"/>
<path d="M3123.3 2851.34L3135.36 2874.4L3148.78 2871.03L3143.13 2849.14L3123.3 2851.34Z" fill="url(#paint23_linear_1_2)"/>
<path d="M3141.09 2887.18C3146.87 2879.21 3152.84 2879.3 3153.47 2874.15C3153.96 2870.1 3150.83 2865.5 3146.71 2864.03C3140.93 2861.98 3134.73 2866.68 3133.33 2867.74C3123.81 2874.95 3127.67 2884.39 3118.52 2889.54C3116.67 2890.58 3113.7 2891.78 3110.78 2894.93C3109.54 2896.27 3106.47 2899.59 3107.5 2901.57C3108.69 2903.85 3114.75 2903.18 3120.51 2902.53C3127.43 2901.76 3130.88 2901.38 3134 2899.11C3138.31 2895.96 3136.62 2893.34 3141.09 2887.18Z" fill="url(#paint24_linear_1_2)"/>
<path d="M3252.38 2324.77C3255.27 2373.45 3252.47 2415.52 3247.81 2450.05C3242.79 2487.2 3238.54 2493.88 3238.2 2519.32C3237.46 2574.69 3257.09 2581.08 3266.06 2642.9C3275.97 2711.16 3261.31 2767.16 3255.49 2788.54C3250.41 2807.23 3244.7 2822.45 3240.33 2833.05C3234.09 2839.05 3223.63 2837.74 3212.62 2836.52C3203.12 2774.65 3192.96 2716.51 3183.46 2654.64C3162.3 2562.09 3141.14 2469.55 3119.98 2377C3164.11 2359.59 3208.25 2342.18 3252.38 2324.77Z" fill="url(#paint25_linear_1_2)"/>
<path opacity="0.3" d="M3212.62 2836.52C3203.12 2774.65 3192.96 2716.51 3183.45 2654.64C3162.3 2562.09 3141.14 2469.55 3119.98 2377C3164.11 2359.59 3208.25 2342.18 3252.38 2324.77C3252.57 2328 3252.67 2331.11 3252.81 2334.28C3193.75 2390.92 3184.92 2432.84 3188.02 2460.73C3191.78 2494.55 3213.07 2509.81 3213.56 2559.24C3213.9 2594.58 3203.16 2601.65 3205.97 2633.35C3209.6 2674.16 3230.36 2695.66 3241.57 2718.54C3252.4 2740.65 3258.4 2772.7 3245.44 2819.94C3243.63 2824.86 3241.89 2829.26 3240.33 2833.05C3234.09 2839.05 3223.63 2837.75 3212.62 2836.52Z" fill="url(#paint26_linear_1_2)"/>
<path d="M3176.21 2377.79C3147.52 2433.05 3132.68 2475.95 3124.89 2502.34C3120.14 2518.43 3116.02 2535.13 3116.61 2556.57C3117.34 2582.83 3124.8 2603.88 3130.84 2617.26C3139.41 2634.33 3147.57 2654.39 3153.6 2677.3C3173.16 2751.58 3159.9 2816.04 3148.36 2853.42C3140.55 2856.84 3132.73 2860.26 3124.92 2863.67C3102.43 2817.3 3074.05 2751.24 3050.58 2668.89C3037.76 2623.91 3027.89 2588.62 3023.8 2543.14C3019.48 2495.17 3020.05 2418.71 3053.98 2324.79C3094.72 2342.46 3135.46 2360.12 3176.21 2377.79Z" fill="url(#paint27_linear_1_2)"/>
<path d="M3120.78 1963.94C3070.24 1976.15 3031.96 1987.75 3016.76 2014.22C3000.71 2042.18 3031.74 2059.88 3044.86 2117.47C3064.94 2205.65 3013.11 2243.19 3036.82 2331.7C3044.81 2361.53 3057.87 2384.06 3066.67 2397.37C3084.36 2408.73 3112.22 2423.93 3148.98 2432.86C3202.47 2445.84 3227.24 2433.96 3297.52 2432.27C3412.47 2429.52 3432.35 2459.23 3482.34 2436.13C3532.87 2412.79 3566.07 2357.73 3553.01 2336.32C3545.19 2323.49 3525 2333.45 3493.53 2319.4C3452.97 2301.29 3456.92 2271.98 3423.34 2249.7C3375.11 2217.7 3334.91 2256.91 3293.61 2229.03C3251.84 2200.83 3240.45 2125.27 3253.03 2078.78C3261.24 2048.42 3258.6 2016.29 3263.95 1985.38C3264.4 1982.81 3264.57 1978.75 3262.49 1974.33C3254.55 1957.42 3220.2 1956.71 3194.25 1956.41C3154.68 1955.95 3124.93 1962.93 3120.78 1963.94Z" fill="url(#paint28_linear_1_2)"/>
<path opacity="0.3" d="M3473.35 2402.8C3456.63 2394.16 3462.73 2365.5 3437.95 2352.46C3414.96 2340.36 3399.57 2359.71 3366.67 2353C3324.46 2344.38 3323.33 2307.15 3282.84 2298.37C3253.72 2292.07 3246.67 2309.66 3205.82 2313.57C3165.04 2317.47 3110.11 2305.85 3072.62 2267.98C3056.68 2251.89 3047.01 2234.15 3041.13 2217.52C3033.13 2251.37 3024.1 2284.2 3036.82 2331.7C3044.81 2361.53 3057.88 2384.06 3066.67 2397.37C3084.36 2408.73 3112.22 2423.93 3148.98 2432.86C3202.47 2445.84 3227.24 2433.96 3297.52 2432.28C3412.47 2429.52 3432.35 2459.23 3482.35 2436.14C3514.64 2421.22 3539.78 2393.37 3550.36 2369.6C3507.87 2403.87 3485.48 2409.08 3473.35 2402.8Z" fill="url(#paint29_linear_1_2)"/>
<path d="M3116.6 1891C3116.6 1891 3096.74 1912.23 3091.62 1929.05C3086.5 1945.87 3107.33 1949.12 3107.33 1949.12L3103.88 1959.68C3100.93 1968.7 3092.59 1975.25 3082.59 1976.4L3073.79 1977.42C3073.79 1977.42 3124 1999.56 3157.63 1986.79L3149.5 1984.21C3138 1980.56 3130.83 1969.83 3132.38 1958.55L3133.03 1953.85C3133.03 1953.85 3155.44 1902.83 3116.6 1891Z" fill="url(#paint30_linear_1_2)"/>
<path d="M3024.92 2004.92C3015.51 2011.62 3001.49 2023.15 2989.91 2040.67C2956.98 2090.52 2977.32 2138.2 2947.76 2158.66C2939.3 2164.51 2923.94 2170.09 2894.33 2163.44L2883.99 2169.96C2883.99 2169.96 2877.73 2234.87 2960.56 2229.17C3043.39 2223.48 3073.79 2123.44 3073.79 2123.44L3024.92 2004.92Z" fill="url(#paint31_linear_1_2)"/>
<path d="M3126.3 1916.37C3129.11 1916.46 3131.84 1913.41 3133.62 1914.61C3135.49 1915.86 3134.65 1920.65 3132.48 1923.84C3130.7 1926.45 3128.17 1927.76 3126.78 1928.35C3128.57 1931.37 3130.76 1936.01 3131.18 1941.8C3132.1 1954.61 3123.69 1963.89 3119.97 1969.46C3103.23 1994.55 3118.62 2038.91 3138.69 2062.68C3155.01 2082.01 3164.54 2076.04 3173.79 2091.37C3191.81 2121.21 3158.25 2148.03 3164.66 2186.19C3174.4 2244.21 3267.02 2271.52 3270.86 2272.6C3272.38 2273.03 3273.4 2273.31 3274.98 2273.73C3316.67 2284.8 3379.87 2301.58 3429.41 2274.03C3466.48 2253.41 3487.48 2212.66 3489.69 2174.94C3490.28 2165.02 3491.87 2127.29 3463.22 2093.14C3458.67 2087.72 3431.73 2055.69 3390.43 2050.72C3368.55 2048.09 3363.21 2054.81 3347.04 2048.47C3324.89 2039.8 3313.26 2018.71 3306.04 2005.64C3292.77 1981.58 3299.93 1977.57 3289.74 1965.32C3269.76 1941.34 3240.95 1955.2 3219.1 1933.56C3197.57 1912.23 3215.24 1888.54 3194.21 1869.81C3172.52 1850.5 3126.21 1851.21 3113.97 1869.95C3103.44 1886.06 3117.68 1916.07 3126.3 1916.37Z" fill="url(#paint32_linear_1_2)"/>
<path d="M3012.68 1977.45C3018.25 1979.42 3103.18 2011.01 3120.63 2093.93C3122.04 2100.63 3135.69 2171.87 3084.04 2222.2C3026.13 2278.63 2914.61 2277.23 2870.35 2230.06C2860.03 2219.05 2854.58 2206.86 2851.53 2196.61L2863.19 2167.63C2877.42 2151.56 2896.8 2147.75 2907.15 2145.36C2932.66 2139.48 2951.92 2150.11 2966.53 2138.6C2974.61 2132.24 2976.22 2123.07 2977.65 2114.89C2982.54 2087 2965.72 2069.84 2964.49 2052.65C2963.58 2039.79 2958.77 2011.63 2976.7 1993.26C2988.06 1981.63 3003.79 1978.46 3012.68 1977.45Z" fill="url(#paint33_linear_1_2)"/>
<path d="M3045.77 2901.56C3046.76 2896.46 3064.39 2891.84 3073.11 2898.67C3077.44 2902.07 3080.43 2908.95 3077.92 2912.06C3077.01 2913.19 3080.74 2915.18 3077.17 2915.22C3065.29 2915.35 3044.79 2906.63 3045.77 2901.56Z" fill="url(#paint34_linear_1_2)"/>
<path d="M3064.24 2903.42L3082.37 2901.02C3073.97 2891.57 3075.53 2861.45 3075.53 2861.45L3056.25 2865.47C3056.25 2865.47 3058.45 2873.74 3062.18 2885.93C3063.46 2890.11 3064.03 2896.64 3064.24 2903.42Z" fill="url(#paint35_linear_1_2)"/>
<path d="M3062.64 2901.33C3062.64 2901.33 3084.46 2896.63 3086.82 2900.68C3089.18 2904.73 3091.01 2915.57 3077.17 2915.22C3063.32 2914.87 3061.41 2904.76 3062.64 2901.33Z" fill="url(#paint36_linear_1_2)"/>
<path d="M2797.09 2920.7C2798.84 2915.78 2816.98 2913.51 2824.6 2921.42C2828.38 2925.35 2830.3 2932.56 2827.35 2935.31C2826.28 2936.31 2829.68 2938.76 2826.13 2938.33C2814.36 2936.91 2795.36 2925.6 2797.09 2920.7Z" fill="url(#paint37_linear_1_2)"/>
<path d="M2815.1 2924.96H2833.41C2826.51 2914.5 2832.55 2884.88 2832.55 2884.88L2812.87 2886.34C2812.87 2886.34 2813.81 2894.82 2815.68 2907.38C2816.32 2911.68 2815.91 2918.22 2815.1 2924.96Z" fill="url(#paint38_linear_1_2)"/>
<path d="M2767.67 2277.45C2759.19 2303.65 2747.08 2345.92 2739.29 2398.96C2717.05 2550.25 2764.31 2555.08 2755.48 2722.72C2752.67 2776.24 2805.04 2899.63 2809.66 2902.36C2811.89 2902.56 2814.32 2902.7 2816.9 2902.62C2821.46 2902.5 2827.88 2901.84 2835.35 2899.75C2843.65 2898.41 2873.56 2822.62 2866.63 2777.55C2861.72 2745.66 2863.14 2711.43 2865.99 2642.97C2866.45 2631.88 2896.79 2427.16 2896.79 2427.16C2906.01 2502.94 2916.63 2567.32 2925.83 2617.24C2955.39 2777.62 3051.51 2874.69 3056.52 2876.25C3057.51 2876.62 3066.53 2879.69 3073.9 2875.14C3077.19 2873.12 3078.3 2870.5 3078.3 2870.5C3080.87 2868.62 3077.54 2710.38 3048.23 2591.3C3005.67 2418.44 3024.2 2378 3010.72 2300.79C2999.06 2233.98 2767.67 2277.45 2767.67 2277.45Z" fill="url(#paint39_linear_1_2)"/>
<path d="M2756.27 2303.57C2781.82 2315.83 2847.64 2337.82 2926.08 2326.9C2960.86 2322.05 2988.86 2311.42 3008.93 2301.67C3009.54 2301.39 3010.15 2301.1 3010.74 2300.81C2990.36 2243.17 3006.33 2212.33 3013.86 2183.9C3024.62 2143.37 3024.77 2146.44 3033.63 2114.22C3048.21 2061.08 3050.6 2006.79 3040.58 1995.7C3013.56 1965.75 2964.84 1964.66 2939.56 1963.94C2911.31 1963.17 2846.35 1953.85 2810.6 1983.95C2809.98 1984.47 2817.31 1988.13 2813.69 1992.09C2810.35 1995.76 2798.86 2008.63 2788.44 2026C2780.91 2038.58 2774.07 2053.26 2767.21 2075.1C2755.11 2113.65 2751.61 2146.5 2750.45 2160.8C2750.08 2165.53 2749.74 2170.11 2749.44 2174.53C2744.69 2245.55 2750.73 2279.83 2756.27 2303.57Z" fill="url(#paint40_linear_1_2)"/>
<path d="M2813.83 2922.68C2813.83 2922.68 2836.13 2920.88 2837.87 2925.2C2839.6 2929.52 2839.79 2940.49 2826.13 2938.34C2812.48 2936.18 2812.09 2925.92 2813.83 2922.68Z" fill="url(#paint41_linear_1_2)"/>
<path d="M2941.61 1968.34C2941 1959.79 2940.18 1953.71 2938.62 1944.55C2938.37 1943.07 2938.1 1941.61 2937.83 1940.16C2940.5 1902.28 2933.39 1875.38 2926.38 1873.89C2924.18 1873.42 2913.3 1873.59 2910.1 1874.62C2909.79 1874.71 2909.5 1874.82 2909.5 1874.82L2904.49 1877.63C2900.89 1879.82 2898.94 1881.56 2891.27 1894.41C2889.43 1897.47 2881.11 1911.71 2885.54 1927.25C2888.8 1938.7 2905.18 1945.94 2908 1947.36C2907.15 1953.32 2906.29 1959.28 2905.44 1965.24C2867.04 1960.05 2857.06 1962.09 2855.97 1965.39C2853.82 1971.93 2884.23 1981.37 2921.87 1987.35C2933.08 1989.14 2944.39 1989.23 2955.62 1987.57C2976.78 1984.45 2988.61 1982.64 2989.79 1977.45C2990.47 1974.43 2981.77 1969.51 2941.61 1968.34Z" fill="url(#paint42_linear_1_2)"/>
<path d="M2895.07 1863.87C2894.95 1875.62 2900.69 1888.23 2903.67 1890.28C2904.06 1890.55 2906.23 1892.19 2908.16 1894.98C2908.42 1895.36 2908.65 1895.81 2908.85 1896.38C2911.5 1903.82 2898.8 1912.37 2901.18 1915.71C2902.91 1918.14 2911.5 1915.03 2912.49 1917.12C2913.42 1919.08 2906.26 1923.04 2907.31 1925.39C2908.11 1927.17 2912.5 1925.61 2915.22 1928.35C2916.58 1929.71 2916.16 1930.78 2917.56 1934.91C2918.35 1937.25 2919.46 1939.82 2920.34 1941.25C2924.58 1948.19 2936.83 1950.87 2939.23 1948.13C2939.9 1947.37 2939.35 1946.72 2940.05 1944.15C2940.05 1944.15 2940.71 1941.76 2942.53 1939.02C2945.13 1935.1 2951.3 1932.35 2957.55 1928.26C2969.13 1920.67 2972.34 1914.13 2973.3 1911.92C2973.65 1911.13 2973.86 1910.53 2974.02 1910.1C2977.12 1901.48 2977.31 1888.77 2973.26 1880.9C2966.48 1867.71 2950.67 1873.74 2937.98 1860.6C2923.35 1845.45 2932.48 1825.09 2924.45 1822.73C2915.61 1820.13 2895.3 1842.15 2895.07 1863.87Z" fill="#26264F"/>
<path d="M2905.73 1913.01C2908.86 1909.09 2914.22 1912.88 2914.18 1917.99C2914.14 1923.11 2908.76 1928.36 2903.63 1927.29C2898.51 1926.22 2901.51 1918.28 2905.73 1913.01Z" fill="url(#paint43_linear_1_2)"/>
<path d="M3001.72 2265.11C3001.78 2265.11 3001.84 2265.11 3001.9 2265.1C3002.81 2265.01 3003.45 2264.24 3003.35 2263.4C3000.03 2235.43 3006.23 2215.09 3011.7 2197.14C3013.05 2192.75 3014.35 2188.48 3015.46 2184.27C3021.54 2161.31 3024.21 2152.44 3027.03 2143.04C3028.89 2136.88 3030.78 2130.56 3033.74 2119.94C3033.97 2119.12 3033.44 2118.28 3032.57 2118.07C3031.68 2117.83 3030.78 2118.35 3030.56 2119.17C3027.61 2129.76 3025.72 2136.06 3023.87 2142.21C3021.04 2151.63 3018.37 2160.52 3012.28 2183.53C3011.17 2187.71 3009.87 2191.94 3008.55 2196.3C3002.99 2214.52 2996.7 2235.17 3000.09 2263.74C3000.18 2264.53 3000.89 2265.11 3001.72 2265.11Z" fill="url(#paint44_linear_1_2)"/>
<path opacity="0.4" d="M2756.27 2303.57C2781.82 2315.83 2847.64 2337.82 2926.08 2326.9C2960.86 2322.05 2988.86 2311.42 3008.93 2301.67C2999.83 2295.05 2988.61 2283.96 2970.08 2265.1C2947.62 2242.29 2921.3 2250.8 2905.83 2259.4C2894.67 2265.56 2880.85 2265.73 2869.55 2259.88C2858.21 2254.01 2851.04 2242.97 2850.7 2230.88C2850.52 2225.32 2850.8 2218.98 2851.53 2211.82C2856.83 2159.91 2779.96 2155.5 2779.96 2155.5C2769.11 2150.22 2758.81 2158.73 2749.44 2174.53C2744.69 2245.55 2750.73 2279.83 2756.27 2303.57Z" fill="url(#paint45_linear_1_2)"/>
<path d="M2487.53 2072.33C2490.62 2072.61 2494.36 2075.54 2496.99 2076.94C2500.73 2078.92 2504.5 2080.87 2508.31 2082.73C2515.67 2086.32 2523.47 2088.98 2531.89 2088.83C2531.65 2087.71 2531.24 2086.58 2530.76 2085.51C2529.34 2082.39 2527.46 2079.69 2528.58 2078.76C2530.19 2077.39 2537.25 2080.2 2543.78 2086.05C2546.42 2088.38 2548.93 2091.24 2551 2094.5C2554.32 2099.81 2553.76 2102.71 2556.55 2106.76C2560.69 2110.23 2563.79 2110.99 2563.79 2110.99V2112.1L2563.33 2113.46C2567.03 2116.1 2571.21 2117.66 2574.48 2118.68C2568.72 2120.13 2563.09 2121.6 2557.35 2123.08L2553.37 2129.29C2553.37 2129.29 2531.65 2125.04 2518.54 2117.6C2512.42 2114.11 2510.31 2109.8 2509.79 2106.22C2509.43 2103.84 2509.8 2101.8 2510.13 2100.49C2510.4 2099.56 2510.65 2098.99 2510.65 2098.99C2510.65 2098.99 2492.75 2092.04 2485.69 2077C2484.62 2074.73 2484.51 2072.06 2487.53 2072.33Z" fill="url(#paint46_linear_1_2)"/>
<path d="M2563.33 2104.74C2553.12 2111.43 2547.64 2120.51 2544.8 2126.31C2552.31 2142.8 2569.34 2173.43 2604.61 2195.99C2662.42 2233 2747.2 2234.24 2806.24 2192.04C2876.79 2141.63 2888.58 2044.94 2858.95 2003.54C2855.53 1998.77 2844.32 1983.1 2826.91 1981.3C2815.92 1980.17 2800.95 1984.41 2777.31 2010.3C2728.04 2064.26 2745.44 2097.95 2716.34 2113.74C2672.69 2137.41 2607.84 2075.61 2563.33 2104.74Z" fill="url(#paint47_linear_1_2)"/>
<path d="M2342.09 737.341C2342.09 750.963 2317.01 769.639 2302.46 769.405L1185.06 751.382C1170.8 751.152 1159.86 739.539 1159.86 726.06V396.022C1159.86 382.543 1180.05 359.399 1194.32 359.578L2302.77 386.16C2317.32 386.345 2328.97 397.663 2328.97 411.283L2342.09 737.341Z" fill="#BFC8D6"/>
<path d="M1475.35 741.637L1312.92 739.039L1461.86 897.737C1465.53 901.635 1470.94 901.293 1476.42 901.329C1492.85 901.436 1497.97 885.243 1497.65 880.08L1475.35 741.637Z" fill="#BFC8D6"/>
<path d="M2341.44 730.852C2341.44 744.474 2330.56 755.328 2316 755.095L1199.58 737.226C1185.32 736.998 1174.59 725.882 1174.59 712.402V383.374C1174.59 369.894 1185.78 359.111 1200.05 359.291L2316.18 373.368C2330.74 373.552 2341.44 384.743 2341.44 398.365L2341.44 730.852Z" fill="white"/>
<path d="M1489.01 727.421L1326.54 724.844L1475.52 884.319C1479.19 888.217 1485.03 890.203 1490.09 888.298C1495.14 886.393 1498.32 880.686 1498 875.522L1489.01 727.421Z" fill="white"/>
<path d="M1329.1 468.224L1352.38 512.362C1353.24 513.998 1354.9 515.14 1356.8 515.416L1408.29 522.876C1413.09 523.573 1415.05 529.154 1411.59 532.321L1374.6 566.251C1373.23 567.508 1372.62 569.33 1372.95 571.123L1382.07 619.533C1382.92 624.05 1377.93 627.444 1373.62 625.277L1327.49 602.058C1325.78 601.198 1323.75 601.18 1322.05 602.011L1276.27 624.412C1272 626.501 1266.97 623.021 1267.76 618.523L1276.2 570.31C1276.51 568.524 1275.87 566.693 1274.49 565.414L1237.12 530.916C1233.63 527.698 1235.51 522.157 1240.29 521.538L1291.57 514.9C1293.47 514.654 1295.1 513.539 1295.94 511.917L1318.62 468.145C1320.73 464.061 1326.92 464.107 1329.1 468.224Z" fill="url(#paint48_linear_1_2)"/>
<path d="M1331.38 468.241L1354.66 512.38C1355.53 514.016 1357.18 515.158 1359.09 515.434L1410.57 522.894C1415.38 523.591 1417.33 529.172 1413.88 532.339L1376.89 566.27C1375.52 567.527 1374.9 569.349 1375.24 571.142L1384.35 619.553C1385.2 624.07 1380.21 627.465 1375.9 625.297L1329.77 602.078C1328.06 601.218 1326.03 601.2 1324.33 602.031L1278.55 624.433C1274.28 626.522 1269.25 623.042 1270.04 618.544L1278.48 570.33C1278.79 568.544 1278.15 566.713 1276.76 565.434L1239.4 530.936C1235.91 527.718 1237.78 522.176 1242.57 521.557L1293.85 514.919C1295.75 514.673 1297.38 513.557 1298.22 511.936L1320.9 468.163C1323.01 464.078 1329.2 464.124 1331.38 468.241Z" fill="url(#paint49_linear_1_2)"/>
<g opacity="0.3">
<path d="M1363.19 591.727C1345.43 575.741 1325.57 576.456 1317.43 558.094C1308.3 537.523 1327.34 523.326 1323.89 498.149C1323.05 492.051 1320.87 485.078 1316.07 477.479L1298.22 511.935C1297.38 513.556 1295.75 514.672 1293.85 514.918L1242.57 521.556C1237.78 522.175 1235.91 527.717 1239.4 530.934L1276.76 565.433C1278.15 566.712 1278.79 568.543 1278.48 570.329L1270.04 618.543C1269.25 623.041 1274.28 626.521 1278.55 624.432L1324.33 602.03C1326.03 601.2 1328.06 601.217 1329.77 602.077L1375.9 625.296C1378.41 626.557 1381.14 625.933 1382.83 624.303C1378.15 608.49 1370.64 598.44 1363.19 591.727Z" fill="url(#paint50_linear_1_2)"/>
</g>
<path d="M1542.84 471.123L1566.22 515.346C1567.08 516.985 1568.75 518.129 1570.66 518.406L1622.34 525.882C1627.16 526.58 1629.12 532.172 1625.66 535.345L1588.53 569.339C1587.15 570.598 1586.53 572.423 1586.87 574.22L1596.02 622.723C1596.88 627.249 1591.86 630.649 1587.54 628.478L1541.23 605.214C1539.52 604.352 1537.47 604.335 1535.77 605.167L1489.82 627.61C1485.53 629.703 1480.48 626.216 1481.27 621.709L1489.74 573.404C1490.06 571.614 1489.42 569.78 1488.03 568.499L1450.52 533.934C1447.02 530.71 1448.9 525.158 1453.7 524.538L1505.17 517.889C1507.08 517.643 1508.72 516.525 1509.57 514.9L1532.32 471.045C1534.45 466.951 1540.66 466.998 1542.84 471.123Z" fill="url(#paint51_linear_1_2)"/>
<path d="M1545.14 471.14L1568.51 515.364C1569.38 517.003 1571.04 518.147 1572.95 518.424L1624.63 525.9C1629.46 526.598 1631.42 532.19 1627.95 535.363L1590.82 569.358C1589.44 570.617 1588.82 572.442 1589.16 574.239L1598.31 622.743C1599.17 627.269 1594.16 630.67 1589.83 628.498L1543.52 605.233C1541.81 604.371 1539.76 604.354 1538.06 605.186L1492.1 627.629C1487.82 629.722 1482.77 626.235 1483.56 621.728L1492.03 573.421C1492.35 571.631 1491.7 569.797 1490.31 568.516L1452.8 533.951C1449.3 530.727 1451.18 525.175 1455.98 524.555L1507.46 517.906C1509.37 517.66 1511.01 516.542 1511.86 514.917L1534.61 471.061C1536.74 466.969 1542.95 467.015 1545.14 471.14Z" fill="url(#paint52_linear_1_2)"/>
<g opacity="0.3">
<path d="M1577.07 594.864C1559.25 578.847 1539.31 579.562 1531.13 561.165C1521.97 540.554 1541.08 526.331 1537.62 501.105C1536.78 494.995 1534.58 488.009 1529.77 480.395L1511.85 514.917C1511.01 516.542 1509.37 517.659 1507.46 517.906L1455.98 524.555C1451.18 525.175 1449.3 530.727 1452.8 533.951L1490.31 568.517C1491.7 569.798 1492.34 571.633 1492.03 573.423L1483.56 621.729C1482.77 626.235 1487.82 629.722 1492.1 627.63L1538.06 605.187C1539.76 604.355 1541.8 604.373 1543.52 605.234L1589.83 628.499C1592.35 629.762 1595.09 629.138 1596.78 627.505C1592.09 611.659 1584.55 601.59 1577.07 594.864Z" fill="url(#paint53_linear_1_2)"/>
</g>
<path d="M1757.41 474.033L1780.88 518.342C1781.75 519.984 1783.41 521.131 1785.34 521.408L1837.21 528.899C1842.05 529.599 1844.03 535.201 1840.55 538.38L1803.27 572.438C1801.89 573.699 1801.27 575.528 1801.61 577.329L1810.8 625.926C1811.65 630.46 1806.62 633.868 1802.28 631.692L1755.79 608.382C1754.07 607.519 1752.02 607.501 1750.31 608.334L1704.18 630.818C1699.88 632.915 1694.81 629.421 1695.6 624.906L1704.11 576.508C1704.42 574.715 1703.78 572.877 1702.38 571.593L1664.73 536.961C1661.22 533.731 1663.1 528.168 1667.92 527.547L1719.59 520.887C1721.51 520.64 1723.16 519.52 1724.01 517.893L1746.85 473.954C1748.98 469.853 1755.23 469.9 1757.41 474.033Z" fill="url(#paint54_linear_1_2)"/>
<path d="M1759.71 474.05L1783.18 518.359C1784.05 520.001 1785.71 521.148 1787.64 521.425L1839.52 528.917C1844.36 529.616 1846.33 535.22 1842.85 538.399L1805.57 572.458C1804.19 573.719 1803.57 575.548 1803.91 577.349L1813.1 625.947C1813.96 630.481 1808.92 633.889 1804.58 631.713L1758.1 608.402C1756.37 607.539 1754.32 607.521 1752.61 608.354L1706.48 630.839C1702.18 632.936 1697.11 629.442 1697.9 624.927L1706.41 576.528C1706.72 574.735 1706.08 572.897 1704.68 571.613L1667.02 536.98C1663.51 533.75 1665.4 528.187 1670.22 527.566L1721.89 520.905C1723.81 520.658 1725.46 519.538 1726.3 517.911L1749.15 473.971C1751.28 469.87 1757.52 469.917 1759.71 474.05Z" fill="url(#paint55_linear_1_2)"/>
<g opacity="0.3">
<path d="M1791.77 598.012C1773.88 581.964 1753.86 582.68 1745.66 564.247C1736.46 543.596 1755.64 529.346 1752.17 504.072C1751.33 497.95 1749.12 490.95 1744.29 483.322L1726.3 517.91C1725.46 519.538 1723.81 520.657 1721.89 520.904L1670.22 527.565C1665.4 528.186 1663.51 533.749 1667.02 536.979L1704.68 571.612C1706.08 572.896 1706.72 574.734 1706.41 576.527L1697.9 624.926C1697.11 629.441 1702.18 632.935 1706.48 630.838L1752.61 608.353C1754.32 607.52 1756.37 607.538 1758.1 608.401L1804.58 631.712C1807.11 632.978 1809.87 632.352 1811.56 630.716C1806.85 614.84 1799.28 604.751 1791.77 598.012Z" fill="url(#paint56_linear_1_2)"/>
</g>
<path d="M1972.81 476.954L1996.36 521.348C1997.24 522.993 1998.91 524.142 2000.84 524.42L2052.92 531.927C2057.78 532.628 2059.75 538.242 2056.26 541.427L2018.84 575.55C2017.46 576.814 2016.83 578.646 2017.17 580.45L2026.4 629.141C2027.26 633.684 2022.21 637.098 2017.85 634.918L1971.18 611.561C1969.45 610.696 1967.4 610.678 1965.68 611.513L1919.37 634.039C1915.05 636.14 1909.97 632.639 1910.76 628.115L1919.3 579.624C1919.62 577.827 1918.97 575.986 1917.57 574.7L1879.77 540C1876.24 536.764 1878.14 531.19 1882.98 530.568L1934.85 523.896C1936.77 523.649 1938.43 522.527 1939.27 520.896L1962.21 476.873C1964.35 472.766 1970.61 472.813 1972.81 476.954Z" fill="url(#paint57_linear_1_2)"/>
<path d="M1975.12 476.971L1998.67 521.366C1999.55 523.011 2001.22 524.16 2003.15 524.438L2055.23 531.946C2060.09 532.647 2062.07 538.261 2058.57 541.446L2021.15 575.57C2019.77 576.834 2019.14 578.666 2019.49 580.47L2028.71 629.162C2029.57 633.705 2024.52 637.119 2020.16 634.939L1973.49 611.582C1971.76 610.717 1969.71 610.699 1967.99 611.534L1921.68 634.061C1917.36 636.162 1912.27 632.661 1913.07 628.137L1921.6 579.645C1921.92 577.848 1921.27 576.007 1919.87 574.721L1882.07 540.02C1878.55 536.784 1880.44 531.21 1885.28 530.588L1937.15 523.916C1939.08 523.669 1940.73 522.547 1941.58 520.916L1964.52 476.892C1966.65 472.783 1972.92 472.83 1975.12 476.971Z" fill="url(#paint58_linear_1_2)"/>
<g opacity="0.3">
<path d="M2007.3 601.173C1989.34 585.093 1969.25 585.81 1961.01 567.342C1951.78 546.651 1971.03 532.375 1967.54 507.052C1966.7 500.918 1964.49 493.905 1959.63 486.262L1941.58 520.916C1940.73 522.547 1939.07 523.669 1937.15 523.916L1885.28 530.588C1880.44 531.21 1878.55 536.784 1882.07 540.02L1919.87 574.721C1921.27 576.007 1921.92 577.849 1921.6 579.645L1913.07 628.137C1912.27 632.661 1917.36 636.161 1921.68 634.061L1967.99 611.534C1969.71 610.699 1971.76 610.717 1973.49 611.582L2020.16 634.939C2022.69 636.207 2025.46 635.58 2027.16 633.941C2022.44 618.034 2014.84 607.925 2007.3 601.173Z" fill="url(#paint59_linear_1_2)"/>
</g>
<path d="M2189.04 479.886L2212.68 524.367C2213.56 526.015 2215.24 527.166 2217.17 527.445L2269.45 534.968C2274.33 535.67 2276.32 541.295 2272.81 544.486L2235.25 578.674C2233.86 579.94 2233.23 581.776 2233.57 583.583L2242.83 632.368C2243.69 636.92 2238.62 640.34 2234.25 638.156L2187.4 614.753C2185.67 613.886 2183.6 613.868 2181.88 614.705L2135.39 637.274C2131.06 639.378 2125.95 635.871 2126.75 631.339L2135.32 582.755C2135.63 580.955 2134.98 579.11 2133.58 577.821L2095.63 543.053C2092.09 539.81 2094 534.226 2098.85 533.603L2150.92 526.92C2152.85 526.672 2154.52 525.548 2155.37 523.915L2178.39 479.808C2180.54 475.69 2186.83 475.737 2189.04 479.886Z" fill="#BFC8D6"/>
<path d="M2191.35 479.904L2215 524.385C2215.88 526.034 2217.56 527.184 2219.49 527.463L2271.77 534.986C2276.65 535.689 2278.64 541.313 2275.13 544.504L2237.57 578.692C2236.17 579.958 2235.55 581.794 2235.89 583.602L2245.15 632.388C2246.01 636.94 2240.94 640.36 2236.57 638.176L2189.72 614.772C2187.98 613.905 2185.92 613.887 2184.2 614.724L2137.71 637.293C2133.37 639.397 2128.26 635.89 2129.06 631.357L2137.63 582.772C2137.95 580.972 2137.3 579.127 2135.89 577.838L2097.95 543.07C2094.41 539.827 2096.31 534.243 2101.17 533.619L2153.24 526.936C2155.17 526.688 2156.83 525.564 2157.69 523.93L2180.71 479.822C2182.86 475.707 2189.15 475.755 2191.35 479.904Z" fill="#BFC8D6"/>
<g opacity="0.3">
<path d="M2223.65 604.345C2205.63 588.234 2185.46 588.952 2177.19 570.448C2167.92 549.717 2187.25 535.413 2183.75 510.042C2182.9 503.897 2180.68 496.87 2175.81 489.212L2157.69 523.932C2156.83 525.566 2155.17 526.69 2153.24 526.938L2101.17 533.621C2096.31 534.244 2094.41 539.829 2097.95 543.071L2135.89 577.84C2137.3 579.129 2137.95 580.974 2137.63 582.774L2129.06 631.359C2128.26 635.892 2133.37 639.399 2137.71 637.295L2184.2 614.726C2185.92 613.89 2187.98 613.908 2189.72 614.774L2236.57 638.178C2239.11 639.449 2241.89 638.821 2243.6 637.179C2238.85 621.239 2231.22 611.111 2223.65 604.345Z" fill="#BFC8D6"/>
</g>
<path d="M3376.97 1437.98L2972.15 1417.59C2938.81 1415.91 2911.64 1438.87 2911.64 1468.88V1676.38C2911.64 1706.4 2938.81 1731.36 2972.15 1732.12L3104.5 1735.17L3166.26 1803.45C3169.98 1807.57 3176.5 1808.24 3181.09 1804.98L3240.49 1738.31L3376.97 1741.45C3407.83 1742.16 3432.72 1719.5 3432.72 1690.84V1492.69C3432.72 1464.03 3407.83 1439.54 3376.97 1437.98Z" fill="url(#paint60_linear_1_2)"/>
<path d="M3385.02 1431.95L2980.21 1411.56C2946.87 1409.88 2919.69 1432.84 2919.69 1462.85V1670.35C2919.69 1700.37 2946.87 1725.33 2980.21 1726.09L3112.56 1729.14L3172.81 1795.75C3177.1 1800.49 3184.89 1800.55 3189.25 1795.87L3248.55 1732.28L3385.02 1735.42C3415.89 1736.13 3440.78 1713.47 3440.78 1684.81V1486.66C3440.78 1458 3415.89 1433.51 3385.02 1431.95Z" fill="url(#paint61_linear_1_2)"/>
<path d="M3319.33 1555.32C3317.09 1516.05 3288.56 1483.05 3253.03 1478.87C3224.77 1475.55 3199.63 1490.49 3186.24 1514.67C3172.82 1489.3 3147.44 1472.01 3118.65 1472.74C3082.03 1473.68 3052.29 1504.78 3049.94 1544.81C3048.39 1571.25 3058.65 1595.56 3075.49 1611.95L3178.86 1690.71C3183.33 1694.11 3189.15 1694.26 3193.61 1691.1L3294.86 1619.24C3311.01 1604.3 3320.81 1581.26 3319.33 1555.32Z" fill="white"/>
<path d="M1209.39 2394.77C1206.4 2394.77 1203.84 2392.64 1203.55 2389.79C1198.41 2339.32 1180.82 2291.37 1154.02 2254.77C1130.28 2222.34 1102.01 2202.99 1078.4 2202.99C1078.37 2202.99 1078.35 2202.99 1078.32 2202.99C992.305 2203.14 974.313 2387.88 974.142 2389.74C973.864 2392.77 971.032 2395 967.788 2394.75C964.557 2394.49 962.163 2391.83 962.441 2388.8C963.177 2380.77 981.594 2192.18 1078.3 2192C1078.33 2192 1078.37 2192 1078.4 2192C1106.3 2192 1137.39 2212.61 1163.71 2248.56C1191.61 2286.67 1209.91 2336.46 1215.24 2388.75C1215.55 2391.77 1213.18 2394.45 1209.95 2394.74C1209.76 2394.76 1209.57 2394.77 1209.39 2394.77Z" fill="url(#paint62_linear_1_2)"/>
<path d="M851.055 2774.96L964.282 2828.59L1032.89 2631.65L919.846 2367.63L887.792 2374.98L839.157 2754.16C838.056 2762.75 842.811 2771.06 851.055 2774.96Z" fill="url(#paint63_linear_1_2)"/>
<path opacity="0.52" d="M1032.89 2631.65L919.846 2367.63L900.94 2371.97C898.318 2407.22 899.47 2436.23 901.251 2457.35C908.829 2547.25 933.995 2572.26 921.803 2634.97C911.666 2687.11 889.528 2694.19 891.463 2729.27C893.571 2767.48 922.057 2799.47 955.926 2824.63L964.28 2828.59L1032.89 2631.65Z" fill="url(#paint64_linear_1_2)"/>
<path d="M919.846 2367.63H1342.02L1481.74 2789.58L964.282 2828.59L919.846 2367.63Z" fill="url(#paint65_linear_1_2)"/>
<path d="M1050.63 2403.8C1047.96 2403.8 1045.55 2402.09 1044.92 2399.56C1043.72 2394.77 1015.98 2281.71 1055.09 2226.22C1066.3 2210.32 1081.96 2200.61 1101.64 2197.36C1202.74 2180.69 1264.99 2383.83 1267.59 2392.48C1268.47 2395.41 1266.65 2398.44 1263.53 2399.26C1260.4 2400.08 1257.16 2398.37 1256.28 2395.46C1255.67 2393.43 1194.4 2193.2 1103.68 2208.18C1087.08 2210.92 1074.39 2218.8 1064.89 2232.27C1028.54 2283.85 1056.07 2395.92 1056.35 2397.05C1057.09 2400 1055.13 2402.96 1051.98 2403.65C1051.53 2403.75 1051.07 2403.8 1050.63 2403.8Z" fill="url(#paint66_linear_1_2)"/>
<g opacity="0.3">
<path d="M1342.02 2367.63H1132.58C1122.25 2377.46 1114.92 2388.79 1114.22 2401.49C1110.93 2461.19 1257.64 2480.81 1271.79 2562.63C1282 2621.65 1219.2 2689.76 1163.16 2720.1C1104.12 2752.07 1064.11 2735.88 1024.18 2771.37C1006.64 2786.97 995.953 2806.47 989.6 2826.68L1481.74 2789.59L1342.02 2367.63Z" fill="url(#paint67_linear_1_2)"/>
</g>
<path d="M1050.67 2419.98C1059.73 2419.98 1067.08 2413.1 1067.08 2404.63C1067.08 2396.15 1059.73 2389.27 1050.67 2389.27C1041.61 2389.27 1034.26 2396.15 1034.26 2404.63C1034.26 2413.1 1041.61 2419.98 1050.67 2419.98Z" fill="url(#paint68_linear_1_2)"/>
<path d="M1264.69 2418.55C1273.76 2418.55 1281.1 2411.68 1281.1 2403.2C1281.1 2394.72 1273.76 2387.85 1264.69 2387.85C1255.63 2387.85 1248.28 2394.72 1248.28 2403.2C1248.28 2411.68 1255.63 2418.55 1264.69 2418.55Z" fill="url(#paint69_linear_1_2)"/>
</g>
<defs>
<linearGradient id="paint0_linear_1_2" x1="323.594" y1="1257.98" x2="3497.58" y2="2969.7" gradientUnits="userSpaceOnUse">
<stop stop-color="#FF9085"/>
<stop offset="1" stop-color="#FB6FBB"/>
</linearGradient>
<linearGradient id="paint1_linear_1_2" x1="1385.04" y1="731.146" x2="1698.26" y2="2545.28" gradientUnits="userSpaceOnUse">
<stop stop-color="#AA80F9"/>
<stop offset="0.9964" stop-color="#6165D7"/>
</linearGradient>
<linearGradient id="paint2_linear_1_2" x1="946.026" y1="2569.43" x2="3619.19" y2="2569.43" gradientUnits="userSpaceOnUse">
<stop offset="0.494" stop-color="#EBEFF2"/>
<stop offset="1" stop-color="white"/>
</linearGradient>
<linearGradient id="paint3_linear_1_2" x1="2410.36" y1="1240.5" x2="3191.52" y2="2058.63" gradientUnits="userSpaceOnUse">
<stop stop-color="#FFC444"/>
<stop offset="0.9964" stop-color="#F36F56"/>
</linearGradient>
<linearGradient id="paint4_linear_1_2" x1="1939.96" y1="773.876" x2="1889.35" y2="830.979" gradientUnits="userSpaceOnUse">
<stop stop-color="#444B8C"/>
<stop offset="0.9964" stop-color="#3E4177"/>
</linearGradient>
<linearGradient id="paint5_linear_1_2" x1="1936.79" y1="774.514" x2="1886.96" y2="830.74" gradientUnits="userSpaceOnUse">
<stop stop-color="#444B8C"/>
<stop offset="0.9964" stop-color="#3E4177"/>
</linearGradient>
<linearGradient id="paint6_linear_1_2" x1="1966.61" y1="874.772" x2="1817.26" y2="1208.83" gradientUnits="userSpaceOnUse">
<stop stop-color="#444B8C"/>
<stop offset="0.9964" stop-color="#3E4177"/>
</linearGradient>
<linearGradient id="paint7_linear_1_2" x1="1971.62" y1="864.165" x2="1816.81" y2="1210.43" gradientUnits="userSpaceOnUse">
<stop stop-color="#444B8C"/>
<stop offset="0.9964" stop-color="#3E4177"/>
</linearGradient>
<linearGradient id="paint8_linear_1_2" x1="1179.86" y1="1647.52" x2="2029.55" y2="2537.42" gradientUnits="userSpaceOnUse">
<stop stop-color="#FFC444"/>
<stop offset="0.9964" stop-color="#F36F56"/>
</linearGradient>
<linearGradient id="paint9_linear_1_2" x1="2547.04" y1="1186.27" x2="1960.36" y2="2615.96" gradientUnits="userSpaceOnUse">
<stop offset="0.0036" stop-color="#E38DDD"/>
<stop offset="0.7059" stop-color="#AC79EF"/>
<stop offset="1" stop-color="#9571F6"/>
</linearGradient>
<linearGradient id="paint10_linear_1_2" x1="1522.42" y1="1280.87" x2="2108.35" y2="1280.87" gradientUnits="userSpaceOnUse">
<stop stop-color="#FFC444"/>
<stop offset="0.9964" stop-color="#F36F56"/>
</linearGradient>
<linearGradient id="paint11_linear_1_2" x1="1331.21" y1="2173.16" x2="2830.79" y2="2173.16" gradientUnits="userSpaceOnUse">
<stop offset="0.0036" stop-color="#E38DDD"/>
<stop offset="0.7059" stop-color="#AC79EF"/>
<stop offset="1" stop-color="#9571F6"/>
</linearGradient>
<linearGradient id="paint12_linear_1_2" x1="1490.13" y1="2150.09" x2="1625.94" y2="2292.32" gradientUnits="userSpaceOnUse">
<stop stop-color="#FFC444"/>
<stop offset="0.9964" stop-color="#F36F56"/>
</linearGradient>
<linearGradient id="paint13_linear_1_2" x1="2083.66" y1="923.362" x2="1936.2" y2="1253.2" gradientUnits="userSpaceOnUse">
<stop stop-color="#444B8C"/>
<stop offset="0.9964" stop-color="#3E4177"/>
</linearGradient>
<linearGradient id="paint14_linear_1_2" x1="1821.05" y1="1221.83" x2="1909.8" y2="474.086" gradientUnits="userSpaceOnUse">
<stop stop-color="#FFC444"/>
<stop offset="0.9964" stop-color="#F36F56"/>
</linearGradient>
<linearGradient id="paint15_linear_1_2" x1="3398.47" y1="413.296" x2="2882.96" y2="890.074" gradientUnits="userSpaceOnUse">
<stop stop-color="#FFC444"/>
<stop offset="0.9964" stop-color="#F36F56"/>
</linearGradient>
<linearGradient id="paint16_linear_1_2" x1="2984.21" y1="313.928" x2="2769.51" y2="512.496" gradientUnits="userSpaceOnUse">
<stop stop-color="#311944"/>
<stop offset="1" stop-color="#893976"/>
</linearGradient>
<linearGradient id="paint17_linear_1_2" x1="2914.02" y1="278.791" x2="2793.18" y2="390.546" gradientUnits="userSpaceOnUse">
<stop stop-color="#311944"/>
<stop offset="1" stop-color="#893976"/>
</linearGradient>
<linearGradient id="paint18_linear_1_2" x1="3018.91" y1="699.171" x2="2755.96" y2="942.357" gradientUnits="userSpaceOnUse">
<stop offset="0.494" stop-color="#EBEFF2"/>
<stop offset="1" stop-color="white"/>
</linearGradient>
<linearGradient id="paint19_linear_1_2" x1="3009.5" y1="632.097" x2="2609.08" y2="1002.43" gradientUnits="userSpaceOnUse">
<stop stop-color="#FF9085"/>
<stop offset="1" stop-color="#FB6FBB"/>
</linearGradient>
<linearGradient id="paint20_linear_1_2" x1="2857.98" y1="2111.3" x2="2908.64" y2="2212.33" gradientUnits="userSpaceOnUse">
<stop stop-color="#FFC444"/>
<stop offset="0.463" stop-color="#FFC244"/>
<stop offset="0.6297" stop-color="#FEBB46"/>
<stop offset="0.7486" stop-color="#FCB048"/>
<stop offset="0.8447" stop-color="#FA9F4C"/>
<stop offset="0.9261" stop-color="#F78951"/>
<stop offset="0.9964" stop-color="#F36F56"/>
</linearGradient>
<linearGradient id="paint21_linear_1_2" x1="3196.95" y1="2927.1" x2="3222.44" y2="2774.33" gradientUnits="userSpaceOnUse">
<stop stop-color="#444B8C"/>
<stop offset="0.9964" stop-color="#26264F"/>
</linearGradient>
<linearGradient id="paint22_linear_1_2" x1="3234.39" y1="2893.94" x2="3208.17" y2="2657.52" gradientUnits="userSpaceOnUse">
<stop stop-color="#FFC444"/>
<stop offset="0.9964" stop-color="#F36F56"/>
</linearGradient>
<linearGradient id="paint23_linear_1_2" x1="3141.49" y1="2904.24" x2="3115.28" y2="2667.82" gradientUnits="userSpaceOnUse">
<stop stop-color="#FFC444"/>
<stop offset="0.9964" stop-color="#F36F56"/>
</linearGradient>
<linearGradient id="paint24_linear_1_2" x1="3125.08" y1="2915.11" x2="3150.57" y2="2762.34" gradientUnits="userSpaceOnUse">
<stop stop-color="#444B8C"/>
<stop offset="0.9964" stop-color="#26264F"/>
</linearGradient>
<linearGradient id="paint25_linear_1_2" x1="3191.67" y1="2382.26" x2="3266.27" y2="2868.95" gradientUnits="userSpaceOnUse">
<stop stop-color="#311944"/>
<stop offset="1" stop-color="#A03976"/>
</linearGradient>
<linearGradient id="paint26_linear_1_2" x1="3191.67" y1="2382.26" x2="3266.27" y2="2868.95" gradientUnits="userSpaceOnUse">
<stop stop-color="#FF9085"/>
<stop offset="1" stop-color="#FB6FBB"/>
</linearGradient>
<linearGradient id="paint27_linear_1_2" x1="2864.75" y1="2628.89" x2="3285.65" y2="2554.7" gradientUnits="userSpaceOnUse">
<stop stop-color="#311944"/>
<stop offset="1" stop-color="#A03976"/>
</linearGradient>
<linearGradient id="paint28_linear_1_2" x1="3353.05" y1="2071.21" x2="3119.23" y2="2537.42" gradientUnits="userSpaceOnUse">
<stop stop-color="#C683E7"/>
<stop offset="1" stop-color="#AC79EF"/>
</linearGradient>
<linearGradient id="paint29_linear_1_2" x1="2968.65" y1="2039.03" x2="3309.82" y2="2434.16" gradientUnits="userSpaceOnUse">
<stop stop-color="#C181E8"/>
<stop offset="1" stop-color="#AC79EF"/>
</linearGradient>
<linearGradient id="paint30_linear_1_2" x1="3097.18" y1="1922.76" x2="3129.71" y2="2015.31" gradientUnits="userSpaceOnUse">
<stop stop-color="#FFC444"/>
<stop offset="0.463" stop-color="#FFC244"/>
<stop offset="0.6297" stop-color="#FEBB46"/>
<stop offset="0.7486" stop-color="#FCB048"/>
<stop offset="0.8447" stop-color="#FA9F4C"/>
<stop offset="0.9261" stop-color="#F78951"/>
<stop offset="0.9964" stop-color="#F36F56"/>
</linearGradient>
<linearGradient id="paint31_linear_1_2" x1="3097.74" y1="1943.16" x2="2863.92" y2="2409.37" gradientUnits="userSpaceOnUse">
<stop stop-color="#FF9085"/>
<stop offset="1" stop-color="#FB6FBB"/>
</linearGradient>
<linearGradient id="paint32_linear_1_2" x1="3261.96" y1="1868.92" x2="3328.81" y2="2277.49" gradientUnits="userSpaceOnUse">
<stop stop-color="#444B8C"/>
<stop offset="0.9964" stop-color="#26264F"/>
</linearGradient>
<linearGradient id="paint33_linear_1_2" x1="2965.92" y1="2250.77" x2="3030.61" y2="1974.16" gradientUnits="userSpaceOnUse">
<stop stop-color="#AA80F9"/>
<stop offset="0.9964" stop-color="#6165D7"/>
</linearGradient>
<linearGradient id="paint34_linear_1_2" x1="3035.98" y1="2886.83" x2="3073.16" y2="2913.24" gradientUnits="userSpaceOnUse">
<stop stop-color="#444B8C"/>
<stop offset="0.9964" stop-color="#26264F"/>
</linearGradient>
<linearGradient id="paint35_linear_1_2" x1="3073.53" y1="2911.18" x2="3066.08" y2="2854.87" gradientUnits="userSpaceOnUse">
<stop stop-color="#FFC444"/>
<stop offset="0.9964" stop-color="#F36F56"/>
</linearGradient>
<linearGradient id="paint36_linear_1_2" x1="3038.9" y1="2882.73" x2="3076.08" y2="2909.14" gradientUnits="userSpaceOnUse">
<stop stop-color="#444B8C"/>
<stop offset="0.9964" stop-color="#26264F"/>
</linearGradient>
<linearGradient id="paint37_linear_1_2" x1="2789.61" y1="2904.83" x2="2822.35" y2="2935.97" gradientUnits="userSpaceOnUse">
<stop stop-color="#444B8C"/>
<stop offset="0.9964" stop-color="#26264F"/>
</linearGradient>
<linearGradient id="paint38_linear_1_2" x1="2823.14" y1="2933.86" x2="2823.14" y2="2877.13" gradientUnits="userSpaceOnUse">
<stop stop-color="#FFC444"/>
<stop offset="0.9964" stop-color="#F36F56"/>
</linearGradient>
<linearGradient id="paint39_linear_1_2" x1="2820.28" y1="2959.87" x2="3020.36" y2="2096.32" gradientUnits="userSpaceOnUse">
<stop stop-color="#444B8C"/>
<stop offset="0.9964" stop-color="#26264F"/>
</linearGradient>
<linearGradient id="paint40_linear_1_2" x1="2636.04" y1="2320.74" x2="3184.48" y2="1913" gradientUnits="userSpaceOnUse">
<stop stop-color="#AA80F9"/>
<stop offset="0.9964" stop-color="#6165D7"/>
</linearGradient>
<linearGradient id="paint41_linear_1_2" x1="2793.11" y1="2901.15" x2="2825.85" y2="2932.29" gradientUnits="userSpaceOnUse">
<stop stop-color="#444B8C"/>
<stop offset="0.9964" stop-color="#26264F"/>
</linearGradient>
<linearGradient id="paint42_linear_1_2" x1="2856.41" y1="1878.94" x2="3011.72" y2="2087.82" gradientUnits="userSpaceOnUse">
<stop stop-color="#FFC444"/>
<stop offset="0.9964" stop-color="#F36F56"/>
</linearGradient>
<linearGradient id="paint43_linear_1_2" x1="2877.97" y1="1854.72" x2="2982.66" y2="2120.99" gradientUnits="userSpaceOnUse">
<stop stop-color="#FFC444"/>
<stop offset="0.9964" stop-color="#F36F56"/>
</linearGradient>
<linearGradient id="paint44_linear_1_2" x1="3033.79" y1="2191.56" x2="2999.13" y2="2191.56" gradientUnits="userSpaceOnUse">
<stop offset="0.0036" stop-color="#6165D7"/>
<stop offset="1" stop-color="#AA80F9"/>
</linearGradient>
<linearGradient id="paint45_linear_1_2" x1="3008.93" y1="2241.89" x2="2747.72" y2="2241.89" gradientUnits="userSpaceOnUse">
<stop stop-color="#AA80F9"/>
<stop offset="0.9964" stop-color="#6165D7"/>
</linearGradient>
<linearGradient id="paint46_linear_1_2" x1="2546.02" y1="2076.92" x2="2498.13" y2="2141.33" gradientUnits="userSpaceOnUse">
<stop stop-color="#FFC444"/>
<stop offset="0.9964" stop-color="#F36F56"/>
</linearGradient>
<linearGradient id="paint47_linear_1_2" x1="3121.59" y1="2350.45" x2="2597.45" y2="1960.79" gradientUnits="userSpaceOnUse">
<stop stop-color="#AA80F9"/>
<stop offset="0.9964" stop-color="#6165D7"/>
</linearGradient>
<linearGradient id="paint48_linear_1_2" x1="1235.45" y1="546.215" x2="1413.45" y2="544.997" gradientUnits="userSpaceOnUse">
<stop stop-color="#311944"/>
<stop offset="1" stop-color="#893976"/>
</linearGradient>
<linearGradient id="paint49_linear_1_2" x1="1379.33" y1="458.748" x2="1222.11" y2="761.194" gradientUnits="userSpaceOnUse">
<stop stop-color="#FFC444"/>
<stop offset="0.9964" stop-color="#F36F56"/>
</linearGradient>
<linearGradient id="paint50_linear_1_2" x1="1379.32" y1="458.575" x2="1221.98" y2="761.25" gradientUnits="userSpaceOnUse">
<stop stop-color="#FFC444"/>
<stop offset="0.9964" stop-color="#F36F56"/>
</linearGradient>
<linearGradient id="paint51_linear_1_2" x1="1448.84" y1="549.265" x2="1627.53" y2="548.043" gradientUnits="userSpaceOnUse">
<stop stop-color="#311944"/>
<stop offset="1" stop-color="#893976"/>
</linearGradient>
<linearGradient id="paint52_linear_1_2" x1="1593.16" y1="461.607" x2="1435.59" y2="764.721" gradientUnits="userSpaceOnUse">
<stop stop-color="#FFC444"/>
<stop offset="0.9964" stop-color="#F36F56"/>
</linearGradient>
<linearGradient id="paint53_linear_1_2" x1="1593.14" y1="461.441" x2="1435.46" y2="764.771" gradientUnits="userSpaceOnUse">
<stop stop-color="#FFC444"/>
<stop offset="0.9964" stop-color="#F36F56"/>
</linearGradient>
<linearGradient id="paint54_linear_1_2" x1="1663.05" y1="552.327" x2="1842.42" y2="551.1" gradientUnits="userSpaceOnUse">
<stop stop-color="#311944"/>
<stop offset="1" stop-color="#893976"/>
</linearGradient>
<linearGradient id="paint55_linear_1_2" x1="1807.8" y1="464.478" x2="1649.88" y2="768.261" gradientUnits="userSpaceOnUse">
<stop stop-color="#FFC444"/>
<stop offset="0.9964" stop-color="#F36F56"/>
</linearGradient>
<linearGradient id="paint56_linear_1_2" x1="1807.78" y1="464.318" x2="1649.76" y2="768.305" gradientUnits="userSpaceOnUse">
<stop stop-color="#FFC444"/>
<stop offset="0.9964" stop-color="#F36F56"/>
</linearGradient>
<linearGradient id="paint57_linear_1_2" x1="1878.08" y1="555.401" x2="2058.14" y2="554.169" gradientUnits="userSpaceOnUse">
<stop stop-color="#BFC8D6"/>
<stop offset="1" stop-color="#BFC8D6"/>
</linearGradient>
<linearGradient id="paint58_linear_1_2" x1="2023.27" y1="467.359" x2="1865" y2="771.815" gradientUnits="userSpaceOnUse">
<stop stop-color="#BFC8D6"/>
<stop offset="0.9964" stop-color="#BFC8D6"/>
</linearGradient>
<linearGradient id="paint59_linear_1_2" x1="2023.24" y1="467.206" x2="1864.88" y2="771.853" gradientUnits="userSpaceOnUse">
<stop stop-color="#BFC8D6"/>
<stop offset="0.9964" stop-color="#BFC8D6"/>
</linearGradient>
<linearGradient id="paint60_linear_1_2" x1="3036.87" y1="1381.01" x2="3232.97" y2="1718.03" gradientUnits="userSpaceOnUse">
<stop stop-color="#9571F6"/>
<stop offset="1" stop-color="#6165D7"/>
</linearGradient>
<linearGradient id="paint61_linear_1_2" x1="3044.92" y1="1374.98" x2="3241.02" y2="1712" gradientUnits="userSpaceOnUse">
<stop stop-color="#D086E3"/>
<stop offset="1" stop-color="#9E74F3"/>
</linearGradient>
<linearGradient id="paint62_linear_1_2" x1="1078.19" y1="2259.67" x2="1091.14" y2="2439.74" gradientUnits="userSpaceOnUse">
<stop stop-color="#311944"/>
<stop offset="1" stop-color="#893976"/>
</linearGradient>
<linearGradient id="paint63_linear_1_2" x1="790.969" y1="2426.2" x2="920.462" y2="2658.33" gradientUnits="userSpaceOnUse">
<stop stop-color="#FF9085"/>
<stop offset="1" stop-color="#FB6FBB"/>
</linearGradient>
<linearGradient id="paint64_linear_1_2" x1="813.099" y1="2413.85" x2="942.592" y2="2645.98" gradientUnits="userSpaceOnUse">
<stop stop-color="#FF9085"/>
<stop offset="1" stop-color="#FB6FBB"/>
</linearGradient>
<linearGradient id="paint65_linear_1_2" x1="1040.13" y1="2516.65" x2="1422.75" y2="2831.79" gradientUnits="userSpaceOnUse">
<stop stop-color="#FF9085"/>
<stop offset="1" stop-color="#FB6FBB"/>
</linearGradient>
<linearGradient id="paint66_linear_1_2" x1="1119.31" y1="2178.17" x2="1155.39" y2="2424.04" gradientUnits="userSpaceOnUse">
<stop stop-color="#311944"/>
<stop offset="1" stop-color="#893976"/>
</linearGradient>
<linearGradient id="paint67_linear_1_2" x1="1045.34" y1="2510.32" x2="1427.96" y2="2825.46" gradientUnits="userSpaceOnUse">
<stop stop-color="#FF9085"/>
<stop offset="1" stop-color="#FB6FBB"/>
</linearGradient>
<linearGradient id="paint68_linear_1_2" x1="1028.53" y1="2396.93" x2="1035.03" y2="2399.51" gradientUnits="userSpaceOnUse">
<stop stop-color="#311944"/>
<stop offset="1" stop-color="#893976"/>
</linearGradient>
<linearGradient id="paint69_linear_1_2" x1="1242.55" y1="2395.51" x2="1249.05" y2="2398.09" gradientUnits="userSpaceOnUse">
<stop stop-color="#311944"/>
<stop offset="1" stop-color="#893976"/>
</linearGradient>
<clipPath id="clip0_1_2">
<rect width="3908" height="3123" fill="white"/>
</clipPath>
</defs>
</svg>
